<svg xmlns="http://www.w3.org/2000/svg" viewBox="0 0 1400 640" preserveAspectRatio="xMidYMid" width="1400" height="640" xmlns:xlink="http://www.w3.org/1999/xlink" style="shape-rendering:auto;display:block;background-position-x:0%;background-position-y:0%;background-size:auto;background-origin:padding-box;background-clip:border-box;background:scroll rgba(0, 0, 0, 0) none  repeat;width:1400px;height:640px;;animation:none"><g><linearGradient y2="0" y1="0" x2="1" x1="0" id="lg-0.40420523654033436"><stop offset="0" stop-color="#f57826"></stop>

  
<stop offset="1" stop-color="#457f6f"></stop></linearGradient>
<path opacity="0.1" fill="url(#lg-0.40420523654033436)" d="M 0 0 M 0 398.236 Q 140 435.293 280 429.698 T 560 455.093 T 840 457.118 T 1120 484.428 T 1400 486.734 L 1400 136.89 Q 1260 209.253 1120 206.344 T 840 202.802 T 560 232.46 T 280 205.855 T 0 233.505 Z" style="fill:url('#lg-0.40420523654033436');opacity:0.1;;animation:none"></path>
<path opacity="0.1" fill="url(#lg-0.40420523654033436)" d="M 0 0 M 0 402.061 Q 140 406.704 280 400.615 T 560 439.085 T 840 421.539 T 1120 455.176 T 1400 459.459 L 1400 161.337 Q 1260 199.893 1120 198.886 T 840 168.623 T 560 207.743 T 280 256.02 T 0 231.412 Z" style="fill:url('#lg-0.40420523654033436');opacity:0.1;;animation:none"></path>
<path opacity="0.1" fill="url(#lg-0.40420523654033436)" d="M 0 0 M 0 389.817 Q 140 437.239 280 429.622 T 560 421.794 T 840 428.21 T 1120 416.592 T 1400 464.235 L 1400 182.421 Q 1260 219.94 1120 215.469 T 840 203.959 T 560 207.597 T 280 229.719 T 0 226.949 Z" style="fill:url('#lg-0.40420523654033436');opacity:0.1;;animation:none"></path>
<path opacity="0.1" fill="url(#lg-0.40420523654033436)" d="M 0 0 M 0 407.725 Q 140 433.159 280 429.326 T 560 408.291 T 840 449.121 T 1120 465.954 T 1400 473.141 L 1400 142.145 Q 1260 211.277 1120 205.302 T 840 224.449 T 560 234.538 T 280 239.753 T 0 266.781 Z" style="fill:url('#lg-0.40420523654033436');opacity:0.1;;animation:none"></path>
<g></g></g><!-- [ldio] generated by https://loading.io --></svg>