<svg width="32" height="32" viewBox="0 0 32 32" fill="none" xmlns="http://www.w3.org/2000/svg">
<path d="M15.4035 2.73517C15.7843 2.57005 16.2164 2.57005 16.5972 2.73517C20.794 4.55523 24.8085 6.71587 28.6058 9.18211C29.0961 9.50057 29.3567 10.0749 29.2735 10.6536C29.1902 11.2324 28.7783 11.71 28.2181 11.8773C24.2076 13.0754 20.3502 14.6284 16.6821 16.5002C16.2539 16.7187 15.7468 16.7187 15.3186 16.5002C14.0673 15.8617 12.794 15.2602 11.5 14.6973V13.6131C13.1727 12.6629 14.8859 11.7759 16.6365 10.9555C17.3867 10.604 17.7098 9.71091 17.3583 8.96077C17.0068 8.21063 16.1137 7.88749 15.3635 8.23903C13.2705 9.21986 11.2289 10.2921 9.24397 11.4505C8.78329 11.7193 8.50003 12.2126 8.50003 12.746V13.4757C6.95337 12.8881 5.38013 12.3545 3.78261 11.8773C3.2224 11.71 2.81048 11.2324 2.72724 10.6536C2.644 10.0749 2.90461 9.50057 3.39494 9.18211C7.19224 6.71587 11.2067 4.55523 15.4035 2.73517Z" fill="#FE7F2D"/>
<path d="M8.50003 16.6955C7.43931 16.2712 6.36505 15.8736 5.27808 15.5037C4.92898 17.4605 4.64929 19.4413 4.44165 21.4435C4.37196 22.1155 4.76007 22.7511 5.38965 22.9961C5.74063 23.1327 6.08998 23.2726 6.43767 23.4157C6.09412 23.8929 5.70763 24.3489 5.27821 24.7783C4.69242 25.3641 4.69242 26.3138 5.27821 26.8996C5.86399 27.4854 6.81374 27.4854 7.39953 26.8996C8.09849 26.2007 8.70811 25.446 9.22838 24.6499C8.31088 24.2153 7.38039 23.8036 6.43767 23.4157C7.81271 21.5055 8.50002 19.2544 8.50003 17.0002V16.6955Z" fill="#619B8A"/>
<path d="M15.206 27.9183C13.2846 26.7184 11.2892 25.6262 9.22838 24.6499C10.5593 22.6134 11.3055 20.3061 11.4667 17.9678C12.3057 18.3524 13.1353 18.754 13.9551 19.1723C15.2398 19.8279 16.761 19.8279 18.0458 19.1723C20.8301 17.7515 23.7283 16.5229 26.7229 15.5037C27.072 17.4605 27.3517 19.4413 27.5593 21.4435C27.629 22.1155 27.2409 22.7511 26.6113 22.9961C23.1712 24.3349 19.8873 25.9872 16.795 27.9183C16.3088 28.2218 15.6922 28.2218 15.206 27.9183Z" fill="#619B8A"/>
</svg>
