<svg xmlns="http://www.w3.org/2000/svg" viewBox="0 0 2560 640" preserveAspectRatio="xMidYMid" width="2560" height="640" xmlns:xlink="http://www.w3.org/1999/xlink" style="shape-rendering:auto;display:block;background-position-x:0%;background-position-y:0%;background-size:auto;background-origin:padding-box;background-clip:border-box;background:scroll rgba(0, 0, 0, 0) none  repeat;width:2560px;height:640px;;animation:none"><g style="transform:matrix(1, 0, 0, -1, 0, 640);;animation:none"><linearGradient y2="0" y1="0" x2="1" x1="0" id="lg-ca780xlr0a"><stop offset="0" stop-color="#ff904f"></stop>

  
<stop offset="1" stop-color="#6ea997"></stop></linearGradient>
<path opacity="0.05" fill="url(#lg-ca780xlr0a)" d="M 0 0 L 0 222.96 Q 256 295.45 512 252.33 T 1024 263.37 T 1536 314.93 T 2048 214.13 T 2560 218.92 L 2560 0 Z" style="fill:url('#lg-ca780xlr0a');opacity:0.05;;animation:none"></path>
<path opacity="0.05" fill="url(#lg-ca780xlr0a)" d="M 0 0 L 0 269.432 Q 256 277.292 512 255.627 T 1024 281.772 T 1536 230.403 T 2048 299.275 T 2560 301.543 L 2560 0 Z" style="fill:url('#lg-ca780xlr0a');opacity:0.05;;animation:none"></path>
<path opacity="0.05" fill="url(#lg-ca780xlr0a)" d="M 0 0 L 0 307.138 Q 256 268.655 512 231.915 T 1024 226.46 T 1536 269.162 T 2048 292.565 T 2560 309.365 L 2560 0 Z" style="fill:url('#lg-ca780xlr0a');opacity:0.05;;animation:none"></path>
<path opacity="0.05" fill="url(#lg-ca780xlr0a)" d="M 0 0 L 0 225.373 Q 256 288.78 512 244.575 T 1024 263.61 T 1536 257.54 T 2048 285.537 T 2560 222.809 L 2560 0 Z" style="fill:url('#lg-ca780xlr0a');opacity:0.05;;animation:none"></path>
<path opacity="0.05" fill="url(#lg-ca780xlr0a)" d="M 0 0 L 0 226.501 Q 256 317.861 512 287.834 T 1024 271.531 T 1536 227.643 T 2048 276.137 T 2560 275.945 L 2560 0 Z" style="fill:url('#lg-ca780xlr0a');opacity:0.05;;animation:none"></path>
<g></g></g><!-- [ldio] generated by https://loading.io --></svg>
