<svg xmlns="http://www.w3.org/2000/svg" viewBox="0 0 1400 640" preserveAspectRatio="xMidYMid" width="1400" height="640" xmlns:xlink="http://www.w3.org/1999/xlink" style="shape-rendering:auto;display:block;background-position-x:0%;background-position-y:0%;background-size:auto;background-origin:padding-box;background-clip:border-box;background:scroll rgba(0, 0, 0, 0) none  repeat;width:1400px;height:640px;;animation:none"><g style="transform:matrix(-1, 0, 0, 1, 1400, 0);;animation:none"><linearGradient y2="0" y1="0" x2="1" x1="0" id="lg-0.40420523654033436"><stop offset="0" stop-color="#f57826"></stop>

  
<stop offset="1" stop-color="#457f6f"></stop></linearGradient>
<path opacity="0.04" fill="url(#lg-0.40420523654033436)" d="M 0 0 M 0 468.636 Q 140 505.693 280 500.099 T 560 525.493 T 840 527.518 T 1120 554.828 T 1400 557.134 L 1400 66.4901 Q 1260 138.853 1120 135.944 T 840 132.402 T 560 162.06 T 280 135.455 T 0 163.105 Z" style="fill:url('#lg-0.40420523654033436');opacity:0.04;;animation:none"></path>
<path opacity="0.04" fill="url(#lg-0.40420523654033436)" d="M 0 0 M 0 472.461 Q 140 477.104 280 471.015 T 560 509.485 T 840 491.939 T 1120 525.576 T 1400 529.859 L 1400 90.9367 Q 1260 129.493 1120 128.486 T 840 98.2235 T 560 137.343 T 280 185.62 T 0 161.012 Z" style="fill:url('#lg-0.40420523654033436');opacity:0.04;;animation:none"></path>
<path opacity="0.04" fill="url(#lg-0.40420523654033436)" d="M 0 0 M 0 460.217 Q 140 507.638 280 500.022 T 560 492.194 T 840 498.61 T 1120 486.992 T 1400 534.635 L 1400 112.021 Q 1260 149.54 1120 145.069 T 840 133.559 T 560 137.197 T 280 159.319 T 0 156.549 Z" style="fill:url('#lg-0.40420523654033436');opacity:0.04;;animation:none"></path>
<path opacity="0.04" fill="url(#lg-0.40420523654033436)" d="M 0 0 M 0 478.125 Q 140 503.559 280 499.726 T 560 478.691 T 840 519.521 T 1120 536.354 T 1400 543.541 L 1400 71.7449 Q 1260 140.876 1120 134.902 T 840 154.049 T 560 164.138 T 280 169.353 T 0 196.381 Z" style="fill:url('#lg-0.40420523654033436');opacity:0.04;;animation:none"></path>
<g></g></g><!-- [ldio] generated by https://loading.io --></svg>
