<svg xmlns="http://www.w3.org/2000/svg" viewBox="0 0 1400 640" preserveAspectRatio="xMidYMid" width="1400" height="640" xmlns:xlink="http://www.w3.org/1999/xlink" style="shape-rendering:auto;display:block;background-position-x:0%;background-position-y:0%;background-size:auto;background-origin:padding-box;background-clip:border-box;background:scroll rgba(0, 0, 0, 0) none  repeat;width:1400px;height:640px;;animation:none"><g><linearGradient y2="0" y1="0" x2="1" x1="0" id="lg-ca780xlr0a"><stop offset="0" stop-color="#457f6f"></stop>

  
<stop offset="1" stop-color="#f57826"></stop></linearGradient>
<path opacity="0.4" fill="url(#lg-ca780xlr0a)" d="M 0 0 L 0 478.96 Q 140 501.81 280 458.69 T 560 420.09 T 840 422.01 T 1120 271.57 T 1400 226.72 L 1400 0 Z" style="fill:url('#lg-ca780xlr0a');opacity:0.4;;animation:none"></path>
<path opacity="0.4" fill="url(#lg-ca780xlr0a)" d="M 0 0 L 0 525.432 Q 140 480.589 280 458.921 T 560 432.37 T 840 328.303 T 1120 344.472 T 1400 294.041 L 1400 0 Z" style="fill:url('#lg-ca780xlr0a');opacity:0.4;;animation:none"></path>
<path opacity="0.4" fill="url(#lg-ca780xlr0a)" d="M 0 0 L 0 563.138 Q 140 472.925 280 436.184 T 560 378.999 T 840 369.961 T 1120 341.642 T 1400 306.702 L 1400 0 Z" style="fill:url('#lg-ca780xlr0a');opacity:0.4;;animation:none"></path>
<path opacity="0.4" fill="url(#lg-ca780xlr0a)" d="M 0 0 L 0 481.373 Q 140 493.233 280 449.028 T 560 416.534 T 840 358.927 T 1120 335.376 T 1400 221.111 L 1400 0 Z" style="fill:url('#lg-ca780xlr0a');opacity:0.4;;animation:none"></path>
<path opacity="0.4" fill="url(#lg-ca780xlr0a)" d="M 0 0 L 0 482.501 Q 140 524.663 280 494.636 T 560 429.131 T 840 336.046 T 1120 335.337 T 1400 285.944 L 1400 0 Z" style="fill:url('#lg-ca780xlr0a');opacity:0.4;;animation:none"></path>
<g></g></g><!-- [ldio] generated by https://loading.io --></svg>