<svg xmlns="http://www.w3.org/2000/svg" viewBox="0 0 1400 640" preserveAspectRatio="xMidYMid" width="1400" height="640" xmlns:xlink="http://www.w3.org/1999/xlink" style="shape-rendering:auto;display:block;background-position-x:0%;background-position-y:0%;background-size:auto;background-origin:padding-box;background-clip:border-box;background:scroll rgba(0, 0, 0, 0) none  repeat;width:1400px;height:640px;;animation:none"><g><linearGradient y2="0" y1="0" x2="1" x1="0" id="lg-ca780xlr0a"><stop offset="0" stop-color="#457f6f"></stop>

  
<stop offset="1" stop-color="#f57826"></stop></linearGradient>
<path opacity="0.4" fill="url(#lg-ca780xlr0a)" d="M 0 0 L 0 350.96 Q 140 387.74 280 344.61 T 560 319.94 T 840 335.79 T 1120 199.28 T 1400 168.35 L 1400 0 Z" style="fill:url('#lg-ca780xlr0a');opacity:0.4;;animation:none"></path>
<path opacity="0.4" fill="url(#lg-ca780xlr0a)" d="M 0 0 L 0 397.432 Q 140 367.103 280 345.435 T 560 333.388 T 840 243.83 T 1120 274.511 T 1400 238.593 L 1400 0 Z" style="fill:url('#lg-ca780xlr0a');opacity:0.4;;animation:none"></path>
<path opacity="0.4" fill="url(#lg-ca780xlr0a)" d="M 0 0 L 0 435.138 Q 140 359.51 280 322.76 T 560 280.15 T 840 285.697 T 1120 271.955 T 1400 251.59 L 1400 0 Z" style="fill:url('#lg-ca780xlr0a');opacity:0.4;;animation:none"></path>
<path opacity="0.4" fill="url(#lg-ca780xlr0a)" d="M 0 0 L 0 353.373 Q 140 379.775 280 335.569 T 560 317.608 T 840 274.533 T 1120 265.524 T 1400 165.79 L 1400 0 Z" style="fill:url('#lg-ca780xlr0a');opacity:0.4;;animation:none"></path>
<path opacity="0.4" fill="url(#lg-ca780xlr0a)" d="M 0 0 L 0 354.501 Q 140 410.458 280 380.424 T 560 328.717 T 840 249.422 T 1120 262.509 T 1400 226.907 L 1400 0 Z" style="fill:url('#lg-ca780xlr0a');opacity:0.4;;animation:none"></path>
<g></g></g><!-- [ldio] generated by https://loading.io --></svg>